<svg xmlns="http://www.w3.org/2000/svg" width="25.925" height="29.97" viewBox="0 0 25.925 29.97">
  <g id="noun_copy_1115143" transform="translate(-407.4 130.75)">
    <g id="Group_5" data-name="Group 5" transform="translate(407.4 -130.75)">
      <path id="Path_2" data-name="Path 2" d="M26.483,12.667A2.385,2.385,0,0,0,24.1,10.282H7.75a2.35,2.35,0,0,0-2.35,2.35V33.5a2.35,2.35,0,0,0,2.35,2.35H24.134a2.35,2.35,0,0,0,2.35-2.35V12.667Zm-1.768,2.209V32.728a1.354,1.354,0,0,1-1.354,1.354H8.522a1.354,1.354,0,0,1-1.354-1.354V13.4a1.354,1.354,0,0,1,1.354-1.354h14.81a1.353,1.353,0,0,1,1.353,1.326Z" transform="translate(-5.4 -5.881)" fill="#d3d3d3"/>
      <g id="Group_3" data-name="Group 3" transform="translate(4.361 9.904)">
        <path id="Path_3" data-name="Path 3" d="M26.031,22.934h-11a.68.68,0,1,1,0-1.36h11a.68.68,0,1,1,0,1.36Z" transform="translate(-14.35 -21.574)" fill="#d3d3d3"/>
        <path id="Path_4" data-name="Path 4" d="M26.031,29.707h-11a.68.68,0,1,1,0-1.36h11a.68.68,0,1,1,0,1.36Z" transform="translate(-14.35 -25.046)" fill="#d3d3d3"/>
        <path id="Path_5" data-name="Path 5" d="M26.031,36.481h-11a.68.68,0,1,1,0-1.36h11a.68.68,0,1,1,0,1.36Z" transform="translate(-14.35 -28.519)" fill="#d3d3d3"/>
        <path id="Path_6" data-name="Path 6" d="M26.031,43.254h-11a.68.68,0,0,1,0-1.36h11a.68.68,0,1,1,0,1.36Z" transform="translate(-14.35 -31.992)" fill="#d3d3d3"/>
        <path id="Path_7" data-name="Path 7" d="M26.031,50.028h-11a.68.68,0,0,1,0-1.36h11a.68.68,0,1,1,0,1.36Z" transform="translate(-14.35 -35.465)" fill="#d3d3d3"/>
      </g>
      <g id="Group_4" data-name="Group 4" transform="translate(4.841 0)">
        <path id="Path_8" data-name="Path 8" d="M34.034,1.25H17.685a2.35,2.35,0,0,0-2.35,2.35v.951H17.1V4.372a1.354,1.354,0,0,1,1.354-1.354h14.81A1.353,1.353,0,0,1,34.62,4.344l.031,1.5V23.7A1.354,1.354,0,0,1,33.3,25.051h-.619v1.768h1.391a2.35,2.35,0,0,0,2.35-2.35V3.635A2.385,2.385,0,0,0,34.034,1.25Z" transform="translate(-15.335 -1.25)" fill="#d3d3d3"/>
      </g>
    </g>
  </g>
</svg>
