<svg xmlns="http://www.w3.org/2000/svg" width="24.326" height="24.318" viewBox="0 0 24.326 24.318">
  <g id="noun_cart_3820167" transform="translate(-4 -4)">
    <g id="Group_1433" data-name="Group 1433" transform="translate(4 4)">
      <path id="Path_610" data-name="Path 610" d="M27.016,18.443l1.3-9.988a.869.869,0,0,0-.869-.981H9.111L8.777,4.76A.869.869,0,0,0,7.908,4H4.869a.869.869,0,0,0,0,1.737H7.14l.334,2.714h0l1.3,9.988h0l.434,3.474v.109l.026.087.03.069a.7.7,0,0,0,.043.078l.039.056.056.074.048.048.069.061.061.039.078.043.061.03.1.035H9.88a.747.747,0,0,0,.2.03H26.147a.869.869,0,0,0,0-1.737h-15.3L10.631,19.2H26.147A.869.869,0,0,0,27.016,18.443ZM10.41,17.462,9.333,9.211H26.46l-1.077,8.251Z" transform="translate(-4 -4)" fill="#ad1f25"/>
      <path id="Path_611" data-name="Path 611" d="M50.777,51.388a2.388,2.388,0,1,0-2.388,2.388A2.388,2.388,0,0,0,50.777,51.388Zm-2.388.651a.651.651,0,1,1,.651-.651A.651.651,0,0,1,48.388,52.04Z" transform="translate(-27.761 -29.458)" fill="#ad1f25"/>
      <path id="Path_612" data-name="Path 612" d="M20.777,51.388a2.388,2.388,0,1,0-2.388,2.388A2.388,2.388,0,0,0,20.777,51.388Zm-3.04,0a.651.651,0,1,1,.651.651A.651.651,0,0,1,17.737,51.388Z" transform="translate(-10.789 -29.458)" fill="#ad1f25"/>
    </g>
  </g>
</svg>
